<?xml version="1.0" encoding="utf-8"?>
<!-- Generator: Adobe Illustrator 27.5.0, SVG Export Plug-In . SVG Version: 6.00 Build 0)  -->
<svg version="1.1" xmlns="http://www.w3.org/2000/svg" xmlns:xlink="http://www.w3.org/1999/xlink" x="0px" y="0px"
	 viewBox="0 0 500 500" style="enable-background:new 0 0 500 500;" xml:space="preserve">
<g id="BACKGROUND">
	<rect style="fill:#5CD8F9;" width="500" height="500"/>
	<g>
		<path style="fill:#3AB6D6;" d="M132.567,436.706h234.865c9.003,0,16.369-7.366,16.369-16.369c0-9.003-7.366-16.369-16.369-16.369
			H132.567c-9.003,0-16.369,7.366-16.369,16.369C116.198,429.34,123.564,436.706,132.567,436.706z"/>
		<path style="fill:#329CB8;" d="M163.633,427.714h172.735c6.621,0,12.039-4.382,12.039-9.738c0-5.356-5.418-9.737-12.039-9.737
			H163.633c-6.622,0-12.039,4.382-12.039,9.737C151.594,423.332,157.011,427.714,163.633,427.714z"/>
		<path style="fill:#3AB6D6;" d="M173.052,448.095c-5.78,0-10.508,4.729-10.508,10.508c0,5.78,4.729,10.508,10.508,10.508h153.896
			c5.78,0,10.508-4.729,10.508-10.508c0-5.78-4.729-10.508-10.508-10.508H173.052z"/>
		<path style="fill:#3AB6D6;" d="M113.274,500h190.641c-0.721-5.09-5.112-9.042-10.393-9.042H123.667
			C118.386,490.958,113.994,494.91,113.274,500z"/>
		<path style="fill:#3AB6D6;" d="M318.973,500h36.311c-0.721-5.09-5.112-9.042-10.393-9.042h-15.525
			C324.085,490.958,319.694,494.91,318.973,500z"/>
		<path style="fill:#3AB6D6;" d="M406.779,458.603c0-5.78-4.729-10.508-10.509-10.508h-24.937c-5.78,0-10.508,4.729-10.508,10.508
			c0,5.78,4.729,10.508,10.508,10.508h24.937C402.05,469.112,406.779,464.383,406.779,458.603z"/>
		<path style="fill:#3AB6D6;" d="M436.143,395.573c-9.629,0-17.507,7.878-17.507,17.507c0,9.629,7.878,17.507,17.507,17.507h3.829
			c4.814,0,8.754,3.939,8.754,8.754l0,0c0,4.815-3.939,8.754-8.754,8.754h-13.161c-5.78,0-10.508,4.729-10.508,10.508
			c0,5.78,4.729,10.508,10.508,10.508h0.603c6.008,0,10.923,4.915,10.923,10.923v0c0,6.008-4.916,10.923-10.923,10.923h-36.936
			c-5.281,0-9.672,3.952-10.393,9.042H500V395.573H436.143z"/>
		<path style="fill:#3AB6D6;" d="M149.388,458.603c0-5.78-4.729-10.508-10.508-10.508H92.583c-5.78,0-10.508,4.729-10.508,10.508
			c0,5.78,4.729,10.508,10.508,10.508h46.296C144.659,469.112,149.388,464.383,149.388,458.603z"/>
		<path style="fill:#3AB6D6;" d="M78.617,490.958h-21c-6.008,0-10.923-4.916-10.923-10.923v0c0-6.008,4.916-10.923,10.923-10.923
			h0.603c5.78,0,10.508-4.729,10.508-10.508c0-5.78-4.729-10.508-10.508-10.508H45.058c-4.814,0-8.754-3.939-8.754-8.754l0,0
			c0-4.814,3.939-8.754,8.754-8.754h26.561c9.629,0,17.507-7.878,17.507-17.507c0-9.629-7.878-17.507-17.507-17.507H0V500h89.01
			C88.289,494.91,83.898,490.958,78.617,490.958z"/>
	</g>
</g>
<g id="OBJECTS">
	<g>
		<g>
			<polygon style="fill:#F7F8F8;" points="324.112,404.363 175.888,404.363 188.394,354.325 311.606,354.325 			"/>
			<path style="fill:#D3DEDE;" d="M311.606,354.325H188.394l-12.506,50.038l18.165-33.389c2.117-4.417,6.764-7.252,11.883-7.252
				h88.128c5.119,0,9.766,2.836,11.883,7.252l18.165,33.389L311.606,354.325z"/>
			<path style="fill:#F7F8F8;" d="M427.496,354.325H72.504c-3.928,0-7.143-3.214-7.143-7.143V117.52
				c0-3.928,3.214-7.143,7.143-7.143h354.993c3.928,0,7.143,3.214,7.143,7.143v229.662
				C434.639,351.111,431.425,354.325,427.496,354.325z"/>
			<path style="fill:#FFFFFF;" d="M70.34,212.835v-89.27c0-3.773,3.087-6.86,6.86-6.86h345.599c3.773,0,6.861,3.087,6.861,6.86
				v89.27h4.979V117.52c0-3.928-3.214-7.143-7.143-7.143H72.504c-3.928,0-7.143,3.214-7.143,7.143v95.315H70.34z"/>
			<path style="fill:#B7C9C9;" d="M429.66,265.66v75.477c0,3.773-3.087,6.861-6.861,6.861H77.201c-3.773,0-6.86-3.087-6.86-6.861
				V265.66h-4.979v81.522c0,3.928,3.214,7.143,7.143,7.143h354.993c3.928,0,7.143-3.214,7.143-7.143V265.66H429.66z"/>
			<path style="fill:#3AB6D6;" d="M428.146,333.144H71.854c-3.571,0-6.493-2.922-6.493-6.493v-188.6
				c0-3.571,2.922-6.493,6.493-6.493h356.292c3.571,0,6.493,2.922,6.493,6.493v188.6
				C434.639,330.222,431.717,333.144,428.146,333.144z"/>
			<g>
				<polyline style="fill:none;stroke:#329CB8;stroke-width:2;stroke-linejoin:round;stroke-miterlimit:10;" points="
					181.418,189.018 195.072,175.365 208.726,189.018 				"/>
				<g>
					
						<rect x="185.411" y="172.982" transform="matrix(-1 -1.224647e-16 1.224647e-16 -1 387.9779 350.7291)" style="fill:#176175;" width="17.156" height="4.764"/>
					
						<rect x="303.479" y="172.852" transform="matrix(-1 -1.224647e-16 1.224647e-16 -1 625.8391 447.6275)" style="fill:none;stroke:#329CB8;stroke-width:1.5;stroke-linejoin:round;stroke-miterlimit:10;" width="18.88" height="101.923"/>
					<polygon style="fill:none;stroke:#329CB8;stroke-width:1.5;stroke-linejoin:round;stroke-miterlimit:10;" points="
						303.479,161.453 322.36,161.453 317.016,153.259 308.823,153.259 					"/>
					
						<rect x="272.496" y="109.762" transform="matrix(-1.836970e-16 1 -1 -1.836970e-16 445.3481 -111.0434)" style="fill:none;stroke:#329CB8;stroke-width:1.5;stroke-linejoin:round;stroke-miterlimit:10;" width="11.399" height="114.781"/>
					<polygon style="fill:none;stroke:#329CB8;stroke-width:1.5;stroke-linejoin:round;stroke-miterlimit:10;" points="
						186.494,172.852 186.494,167.152 220.805,161.453 220.805,172.852 					"/>
					<polygon style="fill:none;stroke:#329CB8;stroke-width:1.5;stroke-linejoin:round;stroke-miterlimit:10;" points="
						348.406,172.852 348.406,164.659 335.586,161.453 335.586,172.852 					"/>
					<polyline style="fill:none;stroke:#329CB8;stroke-width:1.5;stroke-linejoin:round;stroke-miterlimit:10;" points="
						220.805,172.861 232.426,161.373 244.17,172.485 255.781,161.373 267.234,172.826 278.656,161.404 290.173,172.921 
						301.6,161.494 312.927,172.821 324.246,161.501 335.586,172.841 348.406,164.659 317.016,153.259 308.823,153.259 
						220.805,161.453 210.307,172.818 201.245,164.702 194.266,172.852 186.494,167.152 					"/>
					<polyline style="fill:none;stroke:#329CB8;stroke-width:1.5;stroke-linejoin:round;stroke-miterlimit:10;" points="
						322.36,274.775 303.479,255.413 322.299,236.593 303.514,217.808 322.415,198.907 303.544,180.036 310.597,172.982 					"/>
					<polyline style="fill:none;stroke:#329CB8;stroke-width:1.5;stroke-linejoin:round;stroke-miterlimit:10;" points="
						303.535,274.775 322.415,255.413 303.595,236.593 322.38,217.808 303.479,198.907 322.35,180.036 315.297,172.982 					"/>
					
						<line style="fill:none;stroke:#329CB8;stroke-width:1.5;stroke-linejoin:round;stroke-miterlimit:10;" x1="322.35" y1="180.036" x2="303.544" y2="180.036"/>
					
						<line style="fill:none;stroke:#329CB8;stroke-width:1.5;stroke-linejoin:round;stroke-miterlimit:10;" x1="322.415" y1="198.907" x2="303.479" y2="198.907"/>
					
						<line style="fill:none;stroke:#329CB8;stroke-width:1.5;stroke-linejoin:round;stroke-miterlimit:10;" x1="322.38" y1="217.808" x2="303.514" y2="217.808"/>
					
						<line style="fill:none;stroke:#329CB8;stroke-width:1.5;stroke-linejoin:round;stroke-miterlimit:10;" x1="322.299" y1="236.593" x2="303.595" y2="236.593"/>
					
						<line style="fill:none;stroke:#329CB8;stroke-width:1.5;stroke-linejoin:round;stroke-miterlimit:10;" x1="322.415" y1="255.413" x2="303.595" y2="255.413"/>
					
						<line style="fill:none;stroke:#329CB8;stroke-width:1.5;stroke-linejoin:round;stroke-miterlimit:10;" x1="324.246" y1="172.793" x2="324.246" y2="161.501"/>
					
						<line style="fill:none;stroke:#329CB8;stroke-width:1.5;stroke-linejoin:round;stroke-miterlimit:10;" x1="312.927" y1="172.821" x2="312.927" y2="161.473"/>
					
						<line style="fill:none;stroke:#329CB8;stroke-width:1.5;stroke-linejoin:round;stroke-miterlimit:10;" x1="301.6" y1="172.8" x2="301.6" y2="161.494"/>
					
						<line style="fill:none;stroke:#329CB8;stroke-width:1.5;stroke-linejoin:round;stroke-miterlimit:10;" x1="290.173" y1="172.921" x2="290.173" y2="161.373"/>
					
						<line style="fill:none;stroke:#329CB8;stroke-width:1.5;stroke-linejoin:round;stroke-miterlimit:10;" x1="278.656" y1="172.89" x2="278.656" y2="161.404"/>
					
						<line style="fill:none;stroke:#329CB8;stroke-width:1.5;stroke-linejoin:round;stroke-miterlimit:10;" x1="267.234" y1="172.826" x2="267.234" y2="161.468"/>
					
						<line style="fill:none;stroke:#329CB8;stroke-width:1.5;stroke-linejoin:round;stroke-miterlimit:10;" x1="255.781" y1="172.921" x2="255.781" y2="161.373"/>
					
						<line style="fill:none;stroke:#329CB8;stroke-width:1.5;stroke-linejoin:round;stroke-miterlimit:10;" x1="244.17" y1="172.485" x2="244.17" y2="161.809"/>
					
						<line style="fill:none;stroke:#329CB8;stroke-width:1.5;stroke-linejoin:round;stroke-miterlimit:10;" x1="232.426" y1="172.921" x2="232.426" y2="161.373"/>
					
						<line style="fill:none;stroke:#329CB8;stroke-width:1.5;stroke-linejoin:round;stroke-miterlimit:10;" x1="220.805" y1="172.861" x2="220.805" y2="161.433"/>
					<polyline style="fill:none;stroke:#329CB8;stroke-width:1.5;stroke-linejoin:round;stroke-miterlimit:10;" points="
						348.406,172.852 335.586,161.453 324.246,172.793 312.927,161.473 301.6,172.8 290.173,161.373 278.656,172.89 
						267.234,161.468 255.781,172.921 244.17,161.809 232.426,172.921 220.805,161.433 					"/>
					<polyline style="fill:none;stroke:#329CB8;stroke-width:1.5;stroke-linejoin:round;stroke-miterlimit:10;" points="
						220.805,172.852 210.996,163.043 201.286,172.753 194.456,165.923 187.458,172.921 					"/>
					
						<line style="fill:none;stroke:#329CB8;stroke-width:1.5;stroke-linejoin:round;stroke-miterlimit:10;" x1="317.016" y1="153.259" x2="308.94" y2="161.335"/>
					
						<line style="fill:none;stroke:#329CB8;stroke-width:1.5;stroke-linejoin:round;stroke-miterlimit:10;" x1="308.823" y1="153.259" x2="316.868" y2="161.304"/>
					
						<rect x="326.991" y="172.852" transform="matrix(-1 -1.224647e-16 1.224647e-16 -1 675.3973 353.492)" style="fill:#329CB8;" width="21.415" height="7.788"/>
					
						<rect x="326.991" y="184.534" transform="matrix(-1 -1.224647e-16 1.224647e-16 -1 675.3973 372.9613)" style="fill:#329CB8;" width="21.415" height="3.894"/>
					
						<rect x="326.991" y="180.64" transform="matrix(-1 -1.224647e-16 1.224647e-16 -1 675.3973 365.1736)" style="fill:#176175;" width="21.415" height="3.894"/>
					
						<rect x="293.505" y="281.504" transform="matrix(-1 -1.224647e-16 1.224647e-16 -1 625.8391 576.4658)" style="fill:#329CB8;" width="38.83" height="13.458"/>
					
						<rect x="293.505" y="288.233" transform="matrix(-1 -1.224647e-16 1.224647e-16 -1 625.8391 583.1946)" style="fill:#176175;" width="38.83" height="6.729"/>
					
						<rect x="298.848" y="274.775" transform="matrix(-1 -1.224647e-16 1.224647e-16 -1 625.8391 556.2795)" style="fill:#176175;" width="28.143" height="6.729"/>
				</g>
			</g>
			<g>
				<rect x="169.89" y="270.985" style="fill:#329CB8;" width="77.672" height="26.538"/>
				<rect x="169.89" y="284.254" style="fill:#176175;" width="77.672" height="13.269"/>
			</g>
			<g>
				<rect x="178.493" y="253.606" style="fill:#329CB8;" width="60.465" height="17.379"/>
				<rect x="178.493" y="262.295" style="fill:#176175;" width="60.465" height="8.689"/>
			</g>
			<path style="fill:#329CB8;" d="M65.361,326.651c0,3.571,2.922,6.493,6.493,6.493h356.292c3.571,0,6.493-2.922,6.493-6.493
				v-34.543H65.361V326.651z"/>
			<path style="fill:#2B859C;" d="M163.849,318.666H83.266c-3.322,0-6.04-2.718-6.04-6.04l0,0c0-3.322,2.718-6.04,6.04-6.04h80.584
				c3.322,0,6.04,2.718,6.04,6.04l0,0C169.89,315.948,167.172,318.666,163.849,318.666z"/>
			<path style="fill:#2B859C;" d="M421.098,315.54h-74.592c-3.322,0-6.04-2.718-6.04-6.04l0,0c0-3.322,2.718-6.04,6.04-6.04h74.592
				c3.322,0,6.04,2.718,6.04,6.04l0,0C427.138,312.821,424.42,315.54,421.098,315.54z"/>
			<path style="fill:#2B859C;" d="M371.644,308.107h-67.891c-3.024,0-5.498-2.474-5.498-5.498l0,0c0-3.024,2.474-5.498,5.498-5.498
				h67.891c3.024,0,5.498,2.474,5.498,5.498l0,0C377.142,305.633,374.668,308.107,371.644,308.107z"/>
			<g>
				<path style="fill:#329CB8;" d="M70.34,131.745c-2.846,0.688-4.979,3.257-4.979,6.306v188.6c0,3.049,2.133,5.619,4.979,6.306
					V131.745z"/>
				<path style="fill:#329CB8;" d="M429.66,131.745v201.212c2.846-0.688,4.979-3.257,4.979-6.306v-188.6
					C434.639,135.002,432.506,132.432,429.66,131.745z"/>
			</g>
			<path style="fill:#D3DEDE;" d="M324.587,420.337H175.412c-5.356,0-9.737-4.382-9.737-9.737l0,0c0-5.356,4.382-9.738,9.737-9.738
				h149.175c5.356,0,9.738,4.382,9.738,9.738l0,0C334.325,415.955,329.943,420.337,324.587,420.337z"/>
			<path style="fill:#B7C9C9;" d="M324.587,411.855H175.412c-3.836,0-7.162-2.253-8.747-5.497c-0.628,1.285-0.991,2.721-0.991,4.241
				c0,5.356,4.382,9.737,9.737,9.737h149.175c5.356,0,9.738-4.382,9.738-9.737c0-1.52-0.363-2.956-0.991-4.241
				C331.75,409.602,328.423,411.855,324.587,411.855z"/>
			<path style="fill:#FFFFFF;" d="M211.72,406.359h-34.589c-0.684,0-1.243-0.559-1.243-1.243v0c0-0.684,0.559-1.243,1.243-1.243
				h34.589c0.684,0,1.243,0.559,1.243,1.243v0C212.962,405.799,212.403,406.359,211.72,406.359z"/>
			<path style="fill:#FFFFFF;" d="M229.34,406.359h-8.017c-0.684,0-1.243-0.559-1.243-1.243l0,0c0-0.684,0.559-1.243,1.243-1.243
				h8.017c0.684,0,1.243,0.559,1.243,1.243l0,0C230.583,405.799,230.023,406.359,229.34,406.359z"/>
			<path style="fill:#329CB8;" d="M254.376,124.397c0,2.417-1.959,4.377-4.376,4.377c-2.417,0-4.377-1.959-4.377-4.377
				c0-2.417,1.959-4.376,4.377-4.376C252.417,120.02,254.376,121.98,254.376,124.397z"/>
			<path style="fill:#FFFFFF;" d="M251.782,124.397c0,0.984-0.798,1.782-1.782,1.782c-0.984,0-1.782-0.798-1.782-1.782
				c0-0.984,0.798-1.782,1.782-1.782C250.984,122.615,251.782,123.413,251.782,124.397z"/>
			<path style="fill:#D3DEDE;" d="M263.556,124.397c0,0.984-0.798,1.782-1.782,1.782c-0.984,0-1.782-0.798-1.782-1.782
				c0-0.984,0.798-1.782,1.782-1.782C262.759,122.615,263.556,123.413,263.556,124.397z"/>
			<path style="fill:#B7C9C9;" d="M241.218,124.397c0,1.319-1.069,2.387-2.387,2.387c-1.318,0-2.387-1.069-2.387-2.387
				c0-1.318,1.069-2.387,2.387-2.387C240.149,122.009,241.218,123.078,241.218,124.397z"/>
			<path style="fill:#2B859C;" d="M252.106,344.346h-4.212c-1.181,0-2.147-0.966-2.147-2.147v-4.212
				c0-1.181,0.966-2.147,2.147-2.147h4.212c1.181,0,2.147,0.966,2.147,2.147v4.212C254.253,343.38,253.287,344.346,252.106,344.346z
				"/>
			<path style="fill:#B7C9C9;" d="M251.578,343.279h-3.155c-0.884,0-1.608-0.724-1.608-1.608v-3.155
				c0-0.885,0.724-1.608,1.608-1.608h3.155c0.884,0,1.608,0.724,1.608,1.608v3.155C253.186,342.555,252.462,343.279,251.578,343.279
				z"/>
			<g>
				<path style="fill:#F7F8F8;" d="M251.688,336.927l-4.855,4.855c0.024,0.321,0.132,0.619,0.318,0.861l5.398-5.398
					C252.307,337.059,252.009,336.951,251.688,336.927z"/>
				<path style="fill:#F7F8F8;" d="M248.422,336.907c-0.884,0-1.608,0.724-1.608,1.608v1.79l3.398-3.398H248.422z"/>
				<path style="fill:#F7F8F8;" d="M253.14,338.15l-5.082,5.082c0.118,0.028,0.239,0.046,0.365,0.046h1.005l3.758-3.758v-1.005
					C253.186,338.389,253.167,338.268,253.14,338.15z"/>
			</g>
			<g>
				<g>
					<path style="fill:#329CB8;" d="M180.847,226.033l-4.132,4.6c3.575,3.211,7.949,5.439,12.649,6.443l1.291-6.048
						C187.01,230.25,183.618,228.522,180.847,226.033z"/>
					<path style="fill:#329CB8;" d="M188.565,189.985l-2.019-5.846c-4.583,1.498-8.698,4.178-11.9,7.75l4.605,4.127
						c2.477-2.764,5.664-4.839,9.216-6L188.565,189.985z"/>
					<path style="fill:#329CB8;" d="M174.266,205.83l-6.049-1.284c-0.997,4.693-0.734,9.596,0.759,14.18l5.88-1.915
						C173.699,213.258,173.495,209.461,174.266,205.83z"/>
					<path style="fill:#329CB8;" d="M215.302,203.685c1.15,3.554,1.346,7.351,0.567,10.981l6.046,1.298
						c1.007-4.691,0.755-9.595-0.729-14.182L215.302,203.685z"/>
					<path style="fill:#329CB8;" d="M201.678,230.435l-0.049,0.016l1.97,5.862c4.564-1.492,8.665-4.157,11.86-7.707l-4.596-4.137
						C208.39,227.216,205.214,229.279,201.678,230.435z"/>
					<path style="fill:#329CB8;" d="M213.474,189.858c-3.568-3.219-7.937-5.455-12.636-6.469l-1.304,6.044
						c3.643,0.786,7.031,2.52,9.798,5.016L213.474,189.858z"/>
				</g>
				<path style="fill:#176175;" d="M187.731,187.766c-12.404,4.054-19.174,17.397-15.119,29.801
					c4.054,12.405,17.397,19.174,29.801,15.119c12.404-4.054,19.174-17.397,15.119-29.801
					C213.478,190.48,200.136,183.711,187.731,187.766z M199.314,223.204c-7.168,2.343-14.877-1.569-17.22-8.736
					c-2.343-7.168,1.569-14.877,8.736-17.22s14.877,1.569,17.22,8.736C210.393,213.152,206.482,220.861,199.314,223.204z"/>
				<path style="fill:#329CB8;" d="M197.887,218.837c-4.756,1.555-9.872-1.041-11.426-5.797c-1.555-4.756,1.041-9.872,5.797-11.426
					c4.756-1.554,9.872,1.041,11.426,5.797C205.238,212.167,202.643,217.283,197.887,218.837z"/>
			</g>
			<path style="opacity:0.1;" d="M434.639,117.52c0-3.928-3.214-7.143-7.143-7.143H247.162l7.507,113.786l23.355,1.631l1.863,29.221
				l26.495-27.241l128.256,8.956V117.52z"/>
			<g>
				<rect x="303.481" y="277.402" style="fill:#D4A300;" width="58.392" height="24.879"/>
				<rect x="303.481" y="289.842" style="fill:#BF9300;" width="58.392" height="12.439"/>
			</g>
			<g>
				<rect x="346.297" y="264.653" style="fill:#FFC400;" width="75.009" height="45.339"/>
				<rect x="346.297" y="287.323" style="fill:#A67F00;" width="75.009" height="22.67"/>
			</g>
			<path style="fill:#2B859C;" d="M276.538,321.526c0,3.306-9.676,5.986-21.612,5.986c-11.936,0-21.612-2.68-21.612-5.986
				c0-3.306,9.676-5.986,21.612-5.986C266.862,315.54,276.538,318.22,276.538,321.526z"/>
			<g>
				<path style="fill:#DEB99B;" d="M230.487,264.601L230.487,264.601c1.303,0,2.369-1.066,2.369-2.369v-2.927
					c0-1.303-1.066-2.369-2.369-2.369l0,0c-1.303,0-2.369,1.066-2.369,2.369v2.927C228.118,263.535,229.184,264.601,230.487,264.601
					z"/>
				<path style="fill:#FFFFFF;" d="M233.478,261.658c0.184,1.296,0.643,2.573,1.4,3.745c2.803,4.336,8.59,5.579,12.927,2.776
					c0.714-0.462,1.336-1.011,1.878-1.615l5.923,8.392c-0.602,0.544-1.241,1.059-1.944,1.513
					c-7.066,4.568-18.467,2.681-23.035-4.385c-1.518-2.348-3.192-6.821-3.409-10.426H233.478z"/>
				<path style="fill:#FFFFFF;" d="M269.882,288.861c-0.681-5.118-3.991-9.204-9.147-8.917c-0.849,0.047-1.661,0.216-2.431,0.473
					l-0.989-10.224c0.792-0.174,1.602-0.305,2.438-0.352c8.401-0.469,13.858,4.457,15.887,12.623
					c0.428,1.725,0.613,3.349,0.644,4.902"/>
				<path style="fill:#FFFFFF;" d="M249.168,296.569h11.514c3.645,0,6.628-2.982,6.628-6.627v-11.975c0-5.555-4.545-10.1-10.1-10.1
					h-4.57c-5.555,0-10.1,4.545-10.1,10.1v11.975C242.541,293.586,245.523,296.569,249.168,296.569z"/>
				<polygon style="fill:#B8B8B8;" points="255.305,279.978 259.701,272.526 251.127,272.526 				"/>
				<polygon style="fill:#E3E3E3;" points="263.767,268.244 266.802,270.363 259.212,276.807 254.926,273.069 				"/>
				<polygon style="fill:#E3E3E3;" points="246.765,268.244 243.73,270.363 251.319,276.807 255.606,273.069 				"/>
				<path style="fill:#DEB99B;" d="M265.471,264.16L265.471,264.16c2.055,0,3.736-1.681,3.736-3.736v-0.825
					c0-2.055-1.681-3.736-3.736-3.736l0,0c-2.055,0-3.736,1.681-3.736,3.736v0.825C261.734,262.479,263.416,264.16,265.471,264.16z"
					/>
				<path style="fill:#DEB99B;" d="M244.38,264.16L244.38,264.16c2.055,0,3.736-1.681,3.736-3.736v-0.825
					c0-2.055-1.681-3.736-3.736-3.736h0c-2.055,0-3.736,1.681-3.736,3.736v0.825C240.644,262.479,242.326,264.16,244.38,264.16z"/>
				<path style="fill:#EFC9AC;" d="M254.926,273.069L254.926,273.069c5.8,0,10.545-4.745,10.545-10.545v-5.026
					c0-5.8-4.745-10.545-10.545-10.545l0,0c-5.8,0-10.545,4.745-10.545,10.545v5.026
					C244.38,268.324,249.126,273.069,254.926,273.069z"/>
				<path style="fill:#946D4E;" d="M265.101,260.449L265.101,260.449c0.665,0,1.21-0.544,1.21-1.21v-5.476
					c0-0.665-0.544-1.21-1.21-1.21l0,0c-0.665,0-1.21,0.544-1.21,1.21v5.476C263.891,259.905,264.435,260.449,265.101,260.449z"/>
				<path style="fill:#946D4E;" d="M244.38,260.449L244.38,260.449c0.665,0,1.21-0.544,1.21-1.21v-5.476
					c0-0.665-0.544-1.21-1.21-1.21h0c-0.665,0-1.21,0.544-1.21,1.21v5.476C243.171,259.905,243.715,260.449,244.38,260.449z"/>
				<path style="fill:#FFFFFF;" d="M260.25,264.683c0.58,0,0.947,0.829,0.609,1.422c-1.328,2.331-3.494,3.86-5.934,3.86
					c-2.44,0-4.606-1.529-5.934-3.86c-0.338-0.593,0.03-1.422,0.609-1.422H260.25z"/>
				<path style="fill:#DEAE87;" d="M254.926,263.753L254.926,263.753c1.289,0,2.343-1.055,2.343-2.343v-7.188
					c0-1.289-1.054-2.343-2.343-2.343l0,0c-1.289,0-2.343,1.055-2.343,2.343v7.188C252.582,262.698,253.637,263.753,254.926,263.753
					z"/>
				<path style="fill:#FFC400;" d="M242.624,254.259c0.694-6.166,5.958-11.001,12.302-11.001c6.344,0,11.607,4.835,12.302,11.001
					H242.624z"/>
				<path style="fill:#D4A300;" d="M259.212,254.587L259.212,254.587c0.434,0,0.789-0.355,0.789-0.789v-10.625
					c0-0.434-0.355-0.789-0.789-0.789l0,0c-0.434,0-0.789,0.355-0.789,0.789v10.625
					C258.423,254.232,258.779,254.587,259.212,254.587z"/>
				<path style="fill:#D4A300;" d="M250.639,254.587L250.639,254.587c0.434,0,0.789-0.355,0.789-0.789v-10.625
					c0-0.434-0.355-0.789-0.789-0.789l0,0c-0.434,0-0.789,0.355-0.789,0.789v10.625C249.85,254.232,250.205,254.587,250.639,254.587
					z"/>
				<path style="fill:#BF0A3C;" d="M260.149,314.679c0.327-4.683,0.673-17.407-5.224-17.407c-5.897,0-5.551,12.724-5.224,17.407
					h-6.03c-0.79-11.116-1.132-25.164-1.132-25.164c17.079,3.808,24.77,0,24.77,0s-0.342,14.049-1.132,25.164H260.149z"/>
				<path style="fill:#5E4631;" d="M266.362,316.385l1.258-6.886h-8.452l0.84,6.886l0.139,4.787c0,0,8.193,2.067,9.264,1.849
					c1.071-0.217,2.759-1.909,0.621-4.243C268.361,316.952,266.362,316.385,266.362,316.385z"/>
				<path style="fill:#5E4631;" d="M243.618,316.385l-1.258-6.886h8.451l-0.84,6.886l-0.139,4.787c0,0-8.193,2.067-9.264,1.849
					c-1.071-0.217-2.759-1.909-0.622-4.243C241.62,316.952,243.618,316.385,243.618,316.385z"/>
				<path style="fill:#EFC9AC;" d="M231.762,258.172L231.762,258.172c0.267,0.462,0.863,0.622,1.325,0.355l2.602-1.502
					c0.462-0.267,0.622-0.863,0.355-1.325l0,0c-0.267-0.462-0.863-0.622-1.325-0.355l-2.602,1.502
					C231.655,257.114,231.495,257.71,231.762,258.172z"/>
				<path style="fill:#EFC9AC;" d="M233.949,249.037L233.949,249.037c0.461,0.093,0.763,0.546,0.67,1.007l-1.075,5.357
					c-0.093,0.461-0.546,0.763-1.007,0.67l0,0c-0.461-0.092-0.763-0.545-0.67-1.007l1.075-5.357
					C233.035,249.246,233.488,248.944,233.949,249.037z"/>
				<path style="fill:#EFC9AC;" d="M228.756,248.554L228.756,248.554c0.468-0.048,0.89,0.296,0.938,0.763l0.557,5.435
					c0.048,0.468-0.296,0.89-0.764,0.938l0,0c-0.468,0.048-0.89-0.296-0.938-0.763l-0.557-5.435
					C227.945,249.024,228.289,248.602,228.756,248.554z"/>
				<path style="fill:#EFC9AC;" d="M226.209,250.319L226.209,250.319c0.445-0.152,0.934,0.089,1.085,0.534l1.761,5.172
					c0.152,0.445-0.089,0.934-0.534,1.085l0,0c-0.445,0.152-0.934-0.089-1.085-0.534l-1.761-5.172
					C225.524,250.959,225.764,250.471,226.209,250.319z"/>
				<path style="fill:#EFC9AC;" d="M231.331,247.842L231.331,247.842c0.469,0.029,0.83,0.437,0.801,0.906l-0.335,5.453
					c-0.029,0.469-0.437,0.83-0.906,0.801l0,0c-0.469-0.029-0.83-0.437-0.801-0.906l0.335-5.453
					C230.454,248.174,230.862,247.813,231.331,247.842z"/>
				<path style="fill:#EFC9AC;" d="M230.178,260.158h0.618c1.575,0,2.864-1.289,2.864-2.864v-1.406c0-1.575-1.289-2.864-2.864-2.864
					h-0.618c-1.575,0-2.864,1.289-2.864,2.864v1.406C227.314,258.869,228.603,260.158,230.178,260.158z"/>
				<g>
					<path style="fill:#EFC9AC;" d="M272.795,290.329l-0.43-0.114c-1.142-0.302-2.323,0.385-2.625,1.527l-0.486,1.836
						c-0.302,1.142,0.385,2.323,1.527,2.625l0.43,0.114c1.142,0.302,2.323-0.385,2.625-1.527l0.486-1.836
						C274.623,291.812,273.936,290.63,272.795,290.329z"/>
					<path style="fill:#EFC9AC;" d="M270.506,293.761L270.506,293.761c-0.351-0.402-0.967-0.444-1.369-0.094l-2.264,1.974
						c-0.402,0.351-0.444,0.967-0.094,1.369l0,0c0.351,0.402,0.967,0.444,1.369,0.094l2.264-1.974
						C270.814,294.779,270.856,294.163,270.506,293.761z"/>
					<path style="fill:#EFC9AC;" d="M267.444,300.272L267.444,300.272c-0.422-0.207-0.598-0.722-0.39-1.145l2.409-4.904
						c0.207-0.422,0.722-0.598,1.145-0.39l0,0c0.422,0.207,0.598,0.722,0.39,1.145l-2.409,4.904
						C268.381,300.303,267.866,300.479,267.444,300.272z"/>
					<path style="fill:#EFC9AC;" d="M270.884,301.579L270.884,301.579c-0.465-0.073-0.785-0.513-0.711-0.978l0.851-5.397
						c0.073-0.465,0.513-0.785,0.978-0.711l0,0c0.465,0.073,0.785,0.513,0.711,0.978l-0.851,5.397
						C271.789,301.333,271.349,301.653,270.884,301.579z"/>
					<path style="fill:#EFC9AC;" d="M272.643,301.308L272.643,301.308c-0.47,0-0.855-0.385-0.855-0.855l0-5.463
						c0-0.47,0.385-0.855,0.855-0.855l0,0c0.47,0,0.855,0.385,0.855,0.855v5.463C273.498,300.923,273.113,301.308,272.643,301.308z"
						/>
					<path style="fill:#EFC9AC;" d="M269.084,301.126L269.084,301.126c-0.446-0.148-0.691-0.634-0.543-1.081l1.719-5.186
						c0.148-0.446,0.634-0.691,1.081-0.543l0,0c0.446,0.148,0.691,0.634,0.543,1.081l-1.719,5.186
						C270.017,301.029,269.53,301.273,269.084,301.126z"/>
					<path style="fill:#EFC9AC;" d="M272.119,293.224l-0.597-0.158c-1.523-0.403-3.098,0.514-3.501,2.036l-0.36,1.359
						c-0.403,1.523,0.514,3.098,2.037,3.501l0.597,0.158c1.523,0.403,3.099-0.514,3.501-2.037l0.359-1.359
						C274.558,295.202,273.641,293.626,272.119,293.224z"/>
				</g>
				<path style="fill:#FFFFFF;" d="M276.284,287.366c0.06,3.004-0.455,5.745-0.893,8.439l-6.539-3.566c0,0,1.331-1.119,1.03-3.378"
					/>
				<path style="fill:#D4A300;" d="M241.813,255.376h26.226c0.615,0,1.118-0.503,1.118-1.117l0,0c0-0.615-0.503-1.118-1.118-1.118
					h-26.226c-0.615,0-1.117,0.503-1.117,1.118l0,0C240.695,254.873,241.198,255.376,241.813,255.376z"/>
				<path style="fill:none;stroke:#946D4E;stroke-linecap:round;stroke-linejoin:round;stroke-miterlimit:10;" d="M262.626,260.503
					v-1.375c0-0.722-0.591-1.312-1.312-1.312l0,0c-0.722,0-1.312,0.591-1.312,1.312v1.375"/>
				<path style="fill:none;stroke:#946D4E;stroke-linecap:round;stroke-linejoin:round;stroke-miterlimit:10;" d="M249.85,260.503
					v-1.375c0-0.722-0.591-1.312-1.312-1.312l0,0c-0.722,0-1.312,0.591-1.312,1.312v1.375"/>
			</g>
		</g>
		
			<polyline style="fill:none;stroke:#176175;stroke-width:2;stroke-linecap:round;stroke-linejoin:round;stroke-miterlimit:10;" points="
			387.438,100.169 360.058,72.788 332.677,100.169 		"/>
		<g>
			<rect x="342.856" y="68.011" style="fill:#D4A300;" width="34.403" height="9.554"/>
			<rect x="84.795" y="285.638" style="fill:#D4A300;" width="77.868" height="26.987"/>
			<rect x="84.795" y="299.132" style="fill:#A67F00;" width="77.868" height="13.494"/>
			<rect x="95.511" y="272.145" style="fill:#FFC400;" width="56.437" height="13.494"/>
			<rect x="52.565" y="67.75" style="fill:#FFC400;" width="42.946" height="15.617"/>
			<rect x="52.565" y="91.176" style="fill:#D4A300;" width="42.946" height="7.809"/>
			<rect x="52.565" y="83.367" style="fill:#A67F00;" width="42.946" height="7.809"/>
			
				<rect x="104.798" y="67.75" style="fill:none;stroke:#176175;stroke-width:2;stroke-linecap:round;stroke-linejoin:round;stroke-miterlimit:10;" width="37.862" height="204.395"/>
			
				<polygon style="fill:none;stroke:#176175;stroke-width:2;stroke-linecap:round;stroke-linejoin:round;stroke-miterlimit:10;" points="
				142.66,44.89 104.798,44.89 115.514,28.459 131.945,28.459 			"/>
			
				<rect x="181.933" y="-58.769" transform="matrix(-1.836970e-16 1 -1 -1.836970e-16 249.6833 -137.0437)" style="fill:none;stroke:#176175;stroke-width:2;stroke-linecap:round;stroke-linejoin:round;stroke-miterlimit:10;" width="22.86" height="230.178"/>
			
				<polygon style="fill:none;stroke:#176175;stroke-width:2;stroke-linecap:round;stroke-linejoin:round;stroke-miterlimit:10;" points="
				377.259,67.75 377.259,56.32 308.453,44.89 308.453,67.75 			"/>
			
				<polygon style="fill:none;stroke:#176175;stroke-width:2;stroke-linecap:round;stroke-linejoin:round;stroke-miterlimit:10;" points="
				52.565,67.75 52.565,51.319 78.274,44.89 78.274,67.75 			"/>
			
				<polyline style="fill:none;stroke:#176175;stroke-width:2;stroke-linecap:round;stroke-linejoin:round;stroke-miterlimit:10;" points="
				308.453,67.768 285.148,44.73 261.597,67.014 238.313,44.73 215.347,67.697 192.441,44.792 169.345,67.887 146.43,44.972 
				123.715,67.687 101.015,44.987 78.274,67.728 52.565,51.319 115.514,28.459 131.945,28.459 308.453,44.89 329.507,67.681 
				347.679,51.406 361.673,67.75 377.259,56.32 			"/>
			
				<polyline style="fill:none;stroke:#176175;stroke-width:2;stroke-linecap:round;stroke-linejoin:round;stroke-miterlimit:10;" points="
				104.798,272.145 142.66,233.316 104.919,195.575 142.591,157.903 104.687,119.999 142.53,82.156 128.386,68.011 			"/>
			
				<polyline style="fill:none;stroke:#176175;stroke-width:2;stroke-linecap:round;stroke-linejoin:round;stroke-miterlimit:10;" points="
				142.549,272.145 104.687,233.316 142.428,195.575 104.757,157.903 142.66,119.999 104.817,82.156 118.961,68.011 			"/>
			
				<line style="fill:none;stroke:#176175;stroke-width:2;stroke-linecap:round;stroke-linejoin:round;stroke-miterlimit:10;" x1="104.817" y1="82.156" x2="142.53" y2="82.156"/>
			
				<line style="fill:none;stroke:#176175;stroke-width:2;stroke-linecap:round;stroke-linejoin:round;stroke-miterlimit:10;" x1="104.687" y1="119.999" x2="142.66" y2="119.999"/>
			
				<line style="fill:none;stroke:#176175;stroke-width:2;stroke-linecap:round;stroke-linejoin:round;stroke-miterlimit:10;" x1="104.757" y1="157.903" x2="142.591" y2="157.903"/>
			
				<line style="fill:none;stroke:#176175;stroke-width:2;stroke-linecap:round;stroke-linejoin:round;stroke-miterlimit:10;" x1="104.919" y1="195.575" x2="142.428" y2="195.575"/>
			
				<line style="fill:none;stroke:#176175;stroke-width:2;stroke-linecap:round;stroke-linejoin:round;stroke-miterlimit:10;" x1="104.687" y1="233.316" x2="142.428" y2="233.316"/>
			
				<line style="fill:none;stroke:#176175;stroke-width:2;stroke-linecap:round;stroke-linejoin:round;stroke-miterlimit:10;" x1="101.015" y1="67.631" x2="101.015" y2="44.987"/>
			
				<line style="fill:none;stroke:#176175;stroke-width:2;stroke-linecap:round;stroke-linejoin:round;stroke-miterlimit:10;" x1="123.715" y1="67.687" x2="123.715" y2="44.931"/>
			
				<line style="fill:none;stroke:#176175;stroke-width:2;stroke-linecap:round;stroke-linejoin:round;stroke-miterlimit:10;" x1="146.43" y1="67.646" x2="146.43" y2="44.972"/>
			
				<line style="fill:none;stroke:#176175;stroke-width:2;stroke-linecap:round;stroke-linejoin:round;stroke-miterlimit:10;" x1="169.345" y1="67.887" x2="169.345" y2="44.73"/>
			
				<line style="fill:none;stroke:#176175;stroke-width:2;stroke-linecap:round;stroke-linejoin:round;stroke-miterlimit:10;" x1="192.441" y1="67.826" x2="192.441" y2="44.792"/>
			
				<line style="fill:none;stroke:#176175;stroke-width:2;stroke-linecap:round;stroke-linejoin:round;stroke-miterlimit:10;" x1="215.347" y1="67.697" x2="215.347" y2="44.921"/>
			
				<line style="fill:none;stroke:#176175;stroke-width:2;stroke-linecap:round;stroke-linejoin:round;stroke-miterlimit:10;" x1="238.313" y1="67.887" x2="238.313" y2="44.73"/>
			
				<line style="fill:none;stroke:#176175;stroke-width:2;stroke-linecap:round;stroke-linejoin:round;stroke-miterlimit:10;" x1="261.597" y1="67.014" x2="261.597" y2="45.604"/>
			
				<line style="fill:none;stroke:#176175;stroke-width:2;stroke-linecap:round;stroke-linejoin:round;stroke-miterlimit:10;" x1="285.148" y1="67.887" x2="285.148" y2="44.73"/>
			
				<line style="fill:none;stroke:#176175;stroke-width:2;stroke-linecap:round;stroke-linejoin:round;stroke-miterlimit:10;" x1="308.453" y1="67.768" x2="308.453" y2="44.85"/>
			
				<polyline style="fill:none;stroke:#176175;stroke-width:2;stroke-linecap:round;stroke-linejoin:round;stroke-miterlimit:10;" points="
				52.565,67.75 78.274,44.89 101.015,67.631 123.715,44.931 146.43,67.646 169.345,44.73 192.441,67.826 215.347,44.921 
				238.313,67.887 261.597,45.604 285.148,67.887 308.453,44.85 			"/>
			
				<polyline style="fill:none;stroke:#176175;stroke-width:2;stroke-linecap:round;stroke-linejoin:round;stroke-miterlimit:10;" points="
				308.453,67.75 328.124,48.079 347.597,67.551 361.293,53.854 375.326,67.887 			"/>
			
				<line style="fill:none;stroke:#176175;stroke-width:2;stroke-linecap:round;stroke-linejoin:round;stroke-miterlimit:10;" x1="115.514" y1="28.459" x2="131.709" y2="44.654"/>
			
				<line style="fill:none;stroke:#176175;stroke-width:2;stroke-linecap:round;stroke-linejoin:round;stroke-miterlimit:10;" x1="131.945" y1="28.459" x2="115.811" y2="44.592"/>
		</g>
		<g>
			<polygon style="fill:#FFC400;" points="463.408,86.839 256.705,86.839 256.705,225.642 279.655,225.642 279.655,253.317 
				307.33,225.642 463.408,225.642 			"/>
			<path style="fill:#D4A300;" d="M262.705,92.838v126.804h22.95v19.19l19.189-19.19h152.563V92.838H262.705z M453.408,215.642
				h-150.22l-13.533,13.533v-13.533h-22.95V96.838h186.703V215.642z"/>
			<polygon style="fill:#FFFFFF;" points="453.408,215.642 453.408,96.839 266.705,96.839 266.705,215.642 279.655,215.642 
				289.655,215.642 289.655,225.642 289.655,229.175 300.259,218.571 303.188,215.642 307.33,215.642 			"/>
			<g>
				
					<text transform="matrix(1 0 0 1 292.1022 161.8836)" style="fill:#FF0D50; font-family:'ChunkFive-Roman'; font-size:45.2884px;">UNDER</text>
			</g>
			<g>
				
					<text transform="matrix(1 0 0 1 296.3161 182.3074)" style="fill:#FF0D50; font-family:'ChunkFive-Roman'; font-size:18.8448px;">CONSTRUCTION</text>
			</g>
		</g>
		<g>
			<rect x="354.605" y="239.774" style="fill:#FFC400;" width="58.393" height="24.879"/>
			<rect x="354.605" y="252.214" style="fill:#D4A300;" width="58.393" height="12.439"/>
		</g>
	</g>
</g>
<g id="DESIGNED_BY_FREEPIK">
	<g id="XMLID_76_">
		<g id="XMLID_929_">
			<path id="XMLID_958_" style="fill:#F6F7F8;" d="M181.087,454.411c-0.246,0-0.435,0.085-0.567,0.255
				c-0.133,0.17-0.199,0.421-0.199,0.753v2.393c-0.304-0.332-0.617-0.579-0.937-0.739c-0.321-0.159-0.715-0.24-1.182-0.24
				c-0.807,0-1.458,0.283-1.953,0.849c-0.494,0.565-0.742,1.355-0.742,2.369c0,0.479,0.063,0.923,0.188,1.335
				s0.307,0.77,0.549,1.074c0.241,0.305,0.526,0.539,0.857,0.703c0.33,0.164,0.689,0.246,1.078,0.246
				c0.293,0,0.563-0.04,0.809-0.122c0.247-0.08,0.477-0.199,0.689-0.357c0.212-0.155,0.426-0.358,0.644-0.607v0.16
				c0,0.297,0.072,0.525,0.217,0.685c0.145,0.16,0.328,0.24,0.549,0.24c0.226,0,0.409-0.077,0.552-0.232
				c0.143-0.154,0.213-0.386,0.213-0.694v-7.147c0-0.305-0.066-0.534-0.199-0.69C181.52,454.489,181.332,454.411,181.087,454.411z
				 M180.021,461.252c-0.141,0.306-0.329,0.533-0.563,0.682c-0.236,0.148-0.496,0.223-0.781,0.223c-0.28,0-0.539-0.078-0.777-0.236
				c-0.237-0.154-0.424-0.387-0.561-0.695c-0.136-0.31-0.205-0.683-0.205-1.122c0-0.415,0.063-0.78,0.193-1.096
				c0.128-0.314,0.31-0.556,0.543-0.724c0.233-0.168,0.499-0.252,0.795-0.252c0.285,0,0.547,0.082,0.787,0.245
				c0.239,0.165,0.429,0.402,0.569,0.713c0.141,0.311,0.21,0.682,0.21,1.113C180.232,460.561,180.163,460.944,180.021,461.252z"/>
			<path id="XMLID_954_" style="fill:#F6F7F8;" d="M188.452,460.331c0.233-0.122,0.35-0.385,0.35-0.793
				c0-0.438-0.113-0.87-0.338-1.294c-0.225-0.423-0.564-0.769-1.019-1.035c-0.453-0.268-0.996-0.399-1.628-0.399
				c-0.487,0-0.93,0.077-1.33,0.233c-0.4,0.156-0.737,0.381-1.01,0.674c-0.272,0.293-0.48,0.644-0.623,1.054
				c-0.143,0.409-0.213,0.853-0.213,1.332c0,1.017,0.289,1.822,0.867,2.415c0.577,0.593,1.387,0.891,2.427,0.891
				c0.456,0,0.858-0.06,1.207-0.178c0.352-0.12,0.641-0.268,0.874-0.448c0.231-0.181,0.404-0.368,0.519-0.564
				c0.115-0.196,0.172-0.366,0.172-0.514c0-0.166-0.052-0.294-0.155-0.386c-0.103-0.09-0.237-0.137-0.403-0.137
				c-0.154,0-0.273,0.036-0.356,0.107c-0.203,0.19-0.366,0.34-0.492,0.451s-0.265,0.216-0.415,0.313
				c-0.15,0.098-0.305,0.167-0.466,0.214c-0.16,0.044-0.337,0.067-0.531,0.067c-0.289,0-0.553-0.07-0.792-0.213
				c-0.239-0.143-0.432-0.354-0.576-0.636c-0.144-0.281-0.219-0.605-0.222-0.974h3.168
				C187.89,460.512,188.219,460.451,188.452,460.331z M184.297,459.593c0.055-0.547,0.212-0.96,0.472-1.238
				c0.259-0.28,0.59-0.418,0.994-0.418c0.423,0,0.764,0.137,1.024,0.411c0.259,0.275,0.409,0.69,0.448,1.245H184.297z"/>
			<path id="XMLID_952_" style="fill:#F6F7F8;" d="M193.878,459.895c-0.319-0.17-0.729-0.316-1.231-0.439
				c-0.424-0.104-0.756-0.19-0.997-0.261c-0.242-0.07-0.434-0.161-0.576-0.271c-0.143-0.108-0.213-0.247-0.213-0.418
				c0-0.186,0.097-0.342,0.291-0.465c0.194-0.126,0.437-0.188,0.73-0.188c0.286,0,0.511,0.047,0.677,0.142
				c0.166,0.096,0.31,0.223,0.433,0.381c0.151,0.189,0.284,0.331,0.401,0.426c0.116,0.096,0.258,0.144,0.424,0.144
				c0.23,0,0.407-0.061,0.532-0.178c0.124-0.119,0.187-0.271,0.187-0.457c0-0.171-0.058-0.345-0.175-0.523
				c-0.116-0.178-0.286-0.34-0.51-0.485c-0.223-0.146-0.502-0.265-0.837-0.351c-0.333-0.088-0.71-0.131-1.13-0.131
				c-0.535,0-0.99,0.085-1.367,0.259c-0.378,0.172-0.665,0.402-0.859,0.69c-0.194,0.289-0.291,0.597-0.291,0.92
				c0,0.364,0.105,0.671,0.315,0.921c0.21,0.249,0.489,0.45,0.839,0.602c0.351,0.152,0.804,0.298,1.362,0.435
				c0.494,0.12,0.849,0.244,1.066,0.375c0.216,0.131,0.323,0.338,0.323,0.622c0,0.186-0.104,0.352-0.311,0.497
				c-0.208,0.143-0.474,0.216-0.798,0.216c-0.4,0-0.715-0.07-0.947-0.213c-0.232-0.144-0.431-0.357-0.597-0.647
				c-0.082-0.149-0.169-0.267-0.261-0.351c-0.091-0.082-0.221-0.124-0.39-0.124c-0.194,0-0.355,0.064-0.481,0.19
				c-0.128,0.126-0.191,0.278-0.191,0.456c0,0.27,0.099,0.537,0.296,0.805c0.198,0.267,0.505,0.489,0.92,0.667
				c0.415,0.179,0.914,0.268,1.495,0.268c0.609,0,1.127-0.082,1.552-0.246c0.425-0.164,0.747-0.405,0.964-0.725
				c0.218-0.318,0.326-0.701,0.326-1.148c0-0.297-0.081-0.56-0.246-0.792C194.438,460.266,194.196,460.065,193.878,459.895z"/>
			<path id="XMLID_950_" style="fill:#F6F7F8;" d="M196.486,456.82c-0.238,0-0.431,0.081-0.579,0.243
				c-0.149,0.162-0.222,0.404-0.222,0.724v4.636c0,0.316,0.073,0.56,0.222,0.73c0.148,0.17,0.341,0.255,0.579,0.255
				c0.238,0,0.433-0.083,0.588-0.249c0.154-0.166,0.232-0.412,0.232-0.736v-4.683c0-0.288-0.078-0.515-0.232-0.677
				C196.919,456.901,196.724,456.82,196.486,456.82z"/>
			<path id="XMLID_949_" style="fill:#F6F7F8;" d="M196.504,454.482c-0.217,0-0.409,0.073-0.573,0.223
				c-0.165,0.149-0.246,0.337-0.246,0.567c0,0.254,0.08,0.449,0.24,0.588c0.16,0.138,0.353,0.208,0.579,0.208
				c0.217,0,0.405-0.071,0.563-0.212c0.158-0.14,0.238-0.335,0.238-0.584c0-0.258-0.081-0.453-0.244-0.588
				C196.9,454.549,196.714,454.482,196.504,454.482z"/>
			<path id="XMLID_945_" style="fill:#F6F7F8;" d="M203.626,456.82c-0.217,0-0.396,0.077-0.535,0.231
				c-0.139,0.154-0.208,0.372-0.208,0.652v0.221c-0.289-0.376-0.602-0.651-0.938-0.829c-0.337-0.175-0.734-0.264-1.193-0.264
				c-0.384,0-0.736,0.068-1.056,0.204c-0.321,0.138-0.604,0.34-0.849,0.609c-0.245,0.268-0.433,0.599-0.566,0.991
				c-0.133,0.392-0.199,0.831-0.199,1.317c0,0.653,0.108,1.228,0.327,1.728c0.217,0.498,0.529,0.886,0.934,1.163
				c0.406,0.276,0.88,0.415,1.422,0.415c0.45,0,0.839-0.091,1.166-0.272c0.327-0.182,0.614-0.447,0.864-0.797
				c-0.008,0.531-0.02,0.916-0.036,1.155c-0.016,0.24-0.07,0.465-0.164,0.674c-0.093,0.209-0.255,0.373-0.486,0.489
				c-0.232,0.117-0.557,0.176-0.977,0.176c-0.205,0-0.387-0.02-0.545-0.057c-0.159-0.038-0.294-0.095-0.406-0.171
				c-0.112-0.078-0.216-0.171-0.309-0.28c-0.093-0.108-0.183-0.217-0.27-0.323c-0.178-0.21-0.386-0.315-0.624-0.315
				c-0.189,0-0.352,0.061-0.486,0.188c-0.135,0.123-0.202,0.284-0.202,0.482c0,0.262,0.119,0.516,0.356,0.764
				c0.238,0.247,0.576,0.448,1.014,0.605c0.439,0.155,0.938,0.233,1.496,0.233c0.609,0,1.119-0.061,1.528-0.184
				c0.409-0.122,0.741-0.311,0.994-0.563c0.253-0.254,0.438-0.574,0.551-0.961c0.115-0.389,0.173-0.852,0.173-1.39v-4.706
				c0-0.384-0.051-0.678-0.155-0.882C204.146,456.923,203.938,456.82,203.626,456.82z M202.6,461.186
				c-0.151,0.291-0.346,0.508-0.586,0.653c-0.239,0.144-0.493,0.217-0.762,0.217c-0.455,0-0.826-0.168-1.113-0.505
				c-0.287-0.336-0.431-0.834-0.431-1.49c0-0.648,0.139-1.149,0.419-1.501c0.279-0.352,0.649-0.528,1.113-0.528
				c0.475,0,0.858,0.184,1.148,0.553c0.291,0.367,0.437,0.882,0.437,1.542C202.825,460.542,202.749,460.895,202.6,461.186z"/>
			<path id="XMLID_944_" style="fill:#F6F7F8;" d="M210.978,457.888c-0.165-0.339-0.418-0.602-0.753-0.788
				c-0.337-0.187-0.718-0.279-1.146-0.279c-0.439,0-0.828,0.088-1.166,0.264c-0.338,0.177-0.65,0.452-0.935,0.828v-0.195
				c0-0.193-0.034-0.358-0.104-0.493c-0.069-0.134-0.162-0.234-0.276-0.302c-0.114-0.068-0.244-0.102-0.387-0.102
				c-0.233,0-0.416,0.076-0.552,0.228c-0.134,0.152-0.201,0.383-0.201,0.691v4.683c0,0.316,0.076,0.56,0.226,0.73
				c0.15,0.17,0.342,0.255,0.576,0.255c0.241,0,0.438-0.082,0.59-0.246c0.152-0.164,0.228-0.411,0.228-0.739v-2.03
				c0-0.66,0.04-1.11,0.119-1.353c0.11-0.3,0.284-0.537,0.522-0.71c0.237-0.172,0.5-0.258,0.788-0.258
				c0.444,0,0.74,0.143,0.888,0.425c0.148,0.282,0.223,0.691,0.223,1.226v2.7c0,0.316,0.074,0.56,0.226,0.73
				c0.15,0.17,0.346,0.255,0.587,0.255c0.238,0,0.431-0.083,0.578-0.249c0.149-0.166,0.224-0.412,0.224-0.736v-3.016
				c0-0.356-0.017-0.647-0.048-0.878C211.155,458.301,211.085,458.086,210.978,457.888z"/>
			<path id="XMLID_939_" style="fill:#F6F7F8;" d="M217.821,460.331c0.233-0.122,0.35-0.385,0.35-0.793
				c0-0.438-0.113-0.87-0.338-1.294c-0.226-0.423-0.565-0.769-1.019-1.035c-0.453-0.268-0.996-0.399-1.628-0.399
				c-0.487,0-0.93,0.077-1.33,0.233c-0.4,0.156-0.736,0.381-1.009,0.674c-0.273,0.293-0.481,0.644-0.624,1.054
				c-0.142,0.409-0.213,0.853-0.213,1.332c0,1.017,0.289,1.822,0.866,2.415c0.578,0.593,1.387,0.891,2.428,0.891
				c0.455,0,0.858-0.06,1.208-0.178c0.351-0.12,0.64-0.268,0.872-0.448c0.232-0.181,0.405-0.368,0.52-0.564
				c0.114-0.196,0.172-0.366,0.172-0.514c0-0.166-0.051-0.294-0.154-0.386c-0.103-0.09-0.238-0.137-0.404-0.137
				c-0.154,0-0.273,0.036-0.356,0.107c-0.201,0.19-0.366,0.34-0.492,0.451c-0.128,0.111-0.266,0.216-0.415,0.313
				c-0.151,0.098-0.307,0.167-0.466,0.214c-0.161,0.044-0.338,0.067-0.532,0.067c-0.288,0-0.553-0.07-0.792-0.213
				c-0.239-0.143-0.431-0.354-0.575-0.636c-0.145-0.281-0.219-0.605-0.223-0.974h3.169
				C217.26,460.512,217.588,460.451,217.821,460.331z M213.666,459.593c0.056-0.547,0.212-0.96,0.471-1.238
				c0.259-0.28,0.591-0.418,0.995-0.418c0.423,0,0.765,0.137,1.024,0.411c0.259,0.275,0.409,0.69,0.448,1.245H213.666z"/>
			<path id="XMLID_936_" style="fill:#F6F7F8;" d="M224.206,454.411c-0.245,0-0.434,0.085-0.567,0.255
				c-0.132,0.17-0.199,0.421-0.199,0.753v2.393c-0.304-0.332-0.617-0.579-0.938-0.739c-0.32-0.159-0.714-0.24-1.181-0.24
				c-0.808,0-1.458,0.283-1.953,0.849c-0.495,0.565-0.741,1.355-0.741,2.369c0,0.479,0.062,0.923,0.187,1.335
				c0.125,0.412,0.308,0.77,0.549,1.074c0.241,0.305,0.527,0.539,0.857,0.703c0.33,0.164,0.689,0.246,1.077,0.246
				c0.293,0,0.563-0.04,0.81-0.122c0.248-0.08,0.476-0.199,0.689-0.357c0.211-0.155,0.426-0.358,0.643-0.607v0.16
				c0,0.297,0.072,0.525,0.217,0.685c0.145,0.16,0.328,0.24,0.549,0.24c0.226,0,0.41-0.077,0.552-0.232
				c0.143-0.154,0.213-0.386,0.213-0.694v-7.147c0-0.305-0.065-0.534-0.199-0.69C224.641,454.489,224.452,454.411,224.206,454.411z
				 M223.141,461.252c-0.14,0.306-0.328,0.533-0.564,0.682c-0.235,0.148-0.495,0.223-0.781,0.223c-0.281,0-0.54-0.078-0.776-0.236
				c-0.238-0.154-0.425-0.387-0.562-0.695c-0.137-0.31-0.205-0.683-0.205-1.122c0-0.415,0.064-0.78,0.193-1.096
				c0.129-0.314,0.31-0.556,0.543-0.724c0.233-0.168,0.499-0.252,0.795-0.252c0.285,0,0.547,0.082,0.787,0.245
				c0.239,0.165,0.43,0.402,0.57,0.713c0.14,0.311,0.21,0.682,0.21,1.113C223.352,460.561,223.281,460.944,223.141,461.252z"/>
			<path id="XMLID_933_" style="fill:#F6F7F8;" d="M233.586,457.215c-0.406-0.255-0.877-0.383-1.415-0.383
				c-0.467,0-0.859,0.084-1.175,0.252c-0.317,0.168-0.627,0.411-0.932,0.728v-2.476c0-0.297-0.068-0.524-0.202-0.686
				c-0.135-0.159-0.326-0.239-0.576-0.239c-0.237,0-0.423,0.084-0.555,0.252c-0.133,0.168-0.198,0.416-0.198,0.744v7.075
				c0,0.305,0.068,0.535,0.205,0.692c0.136,0.156,0.319,0.233,0.549,0.233c0.226,0,0.412-0.077,0.558-0.233
				c0.146-0.157,0.22-0.388,0.22-0.692v-0.16c0.178,0.205,0.322,0.36,0.43,0.463c0.109,0.104,0.241,0.203,0.395,0.3
				c0.154,0.098,0.341,0.175,0.561,0.234c0.22,0.06,0.454,0.089,0.704,0.089c0.407,0,0.781-0.082,1.119-0.246
				c0.338-0.164,0.626-0.397,0.864-0.698c0.237-0.3,0.418-0.655,0.543-1.064c0.124-0.41,0.187-0.859,0.187-1.35
				c0-0.665-0.112-1.241-0.336-1.725C234.305,457.841,233.991,457.471,233.586,457.215z M232.796,461.625
				c-0.295,0.354-0.646,0.531-1.053,0.531c-0.479,0-0.866-0.174-1.161-0.521c-0.295-0.346-0.442-0.841-0.442-1.486
				c0-0.44,0.069-0.818,0.207-1.136c0.138-0.319,0.328-0.563,0.57-0.73c0.24-0.168,0.516-0.252,0.825-0.252
				c0.3,0,0.563,0.084,0.789,0.252c0.225,0.168,0.399,0.406,0.521,0.716c0.123,0.308,0.184,0.677,0.184,1.103
				C233.238,460.764,233.09,461.271,232.796,461.625z"/>
			<path id="XMLID_931_" style="fill:#F6F7F8;" d="M240.529,456.918c-0.112-0.065-0.23-0.098-0.353-0.098
				c-0.171,0-0.302,0.029-0.395,0.09c-0.093,0.058-0.181,0.173-0.264,0.344c-0.083,0.17-0.176,0.406-0.279,0.705l-1.3,3.71
				l-1.371-3.988c-0.091-0.277-0.195-0.489-0.314-0.638c-0.119-0.148-0.295-0.223-0.529-0.223c-0.135,0-0.264,0.035-0.389,0.107
				c-0.124,0.07-0.222,0.166-0.294,0.285c-0.071,0.117-0.107,0.246-0.107,0.385c0,0.131,0.062,0.341,0.184,0.629l1.995,5.022
				l-0.148,0.362c-0.111,0.265-0.208,0.466-0.294,0.601c-0.085,0.139-0.181,0.234-0.288,0.289c-0.107,0.056-0.254,0.084-0.44,0.084
				c-0.075,0-0.163-0.013-0.266-0.036c-0.083-0.024-0.168-0.036-0.256-0.036c-0.221,0-0.388,0.051-0.501,0.151
				c-0.113,0.101-0.169,0.245-0.169,0.431c0,0.272,0.119,0.461,0.356,0.564c0.237,0.103,0.593,0.153,1.068,0.153
				c0.487,0,0.873-0.073,1.161-0.223c0.287-0.147,0.517-0.361,0.691-0.638c0.174-0.277,0.353-0.659,0.535-1.146l2.113-5.531
				c0.051-0.143,0.095-0.283,0.13-0.421c0.037-0.14,0.061-0.246,0.078-0.321c0-0.123-0.032-0.239-0.093-0.35
				C240.729,457.071,240.642,456.983,240.529,456.918z"/>
		</g>
		<g id="XMLID_365_">
			<g id="XMLID_380_">
				<path id="XMLID_928_" style="fill:#F6F7F8;" d="M262.93,454.406c-0.533,0-0.954,0.068-1.26,0.204
					c-0.308,0.137-0.527,0.354-0.654,0.652c-0.13,0.301-0.191,0.702-0.191,1.211v0.487h-0.387c-0.543,0-0.815,0.191-0.815,0.582
					c0,0.174,0.065,0.315,0.196,0.423c0.132,0.111,0.316,0.164,0.559,0.164h0.446v4.294c0,0.318,0.074,0.563,0.228,0.73
					c0.154,0.17,0.344,0.254,0.573,0.254c0.243,0,0.438-0.084,0.589-0.254c0.155-0.167,0.23-0.411,0.23-0.73v-4.294h0.396
					c0.291,0,0.517-0.035,0.681-0.107c0.166-0.071,0.245-0.24,0.245-0.503c0-0.373-0.307-0.559-0.926-0.559h-0.396v-0.387
					c0-0.321,0.043-0.567,0.122-0.739c0.087-0.172,0.273-0.26,0.565-0.26c0.108,0,0.241,0.014,0.39,0.034
					c0.155,0.026,0.268,0.038,0.33,0.038c0.134,0,0.252-0.055,0.348-0.16c0.102-0.107,0.15-0.235,0.15-0.385
					C264.35,454.636,263.879,454.406,262.93,454.406z"/>
				<path id="XMLID_926_" style="fill:#F6F7F8;" d="M268.089,457.072c-0.32-0.171-0.648-0.255-0.99-0.255
					c-0.342,0-0.61,0.084-0.818,0.255c-0.202,0.171-0.4,0.421-0.592,0.755c-0.015-0.334-0.08-0.584-0.199-0.755
					c-0.119-0.171-0.313-0.255-0.583-0.255c-0.525,0-0.788,0.364-0.788,1.093v4.514c0,0.323,0.078,0.568,0.226,0.732
					c0.149,0.169,0.34,0.251,0.579,0.251c0.236,0,0.432-0.081,0.586-0.247c0.15-0.163,0.233-0.41,0.233-0.736v-1.355
					c0-0.486,0.014-0.899,0.045-1.238c0.033-0.337,0.09-0.631,0.17-0.878c0.084-0.243,0.201-0.425,0.353-0.554
					c0.149-0.122,0.345-0.186,0.582-0.186c0.172,0,0.374,0.036,0.602,0.108c0.227,0.073,0.371,0.112,0.434,0.112
					c0.157,0,0.304-0.064,0.44-0.194c0.135-0.126,0.204-0.292,0.204-0.488C268.571,457.47,268.411,457.243,268.089,457.072z"/>
				<path id="XMLID_922_" style="fill:#F6F7F8;" d="M274.176,460.329c0.233-0.122,0.351-0.385,0.351-0.791
					c0-0.44-0.112-0.87-0.339-1.296c-0.222-0.423-0.565-0.77-1.018-1.033c-0.453-0.27-0.997-0.403-1.629-0.403
					c-0.488,0-0.931,0.078-1.329,0.232c-0.402,0.157-0.735,0.381-1.008,0.675c-0.275,0.295-0.484,0.644-0.624,1.055
					c-0.145,0.41-0.218,0.854-0.218,1.333c0,1.017,0.293,1.823,0.87,2.418c0.576,0.593,1.385,0.889,2.429,0.889
					c0.453,0,0.857-0.061,1.207-0.179c0.349-0.117,0.64-0.269,0.874-0.446c0.232-0.182,0.404-0.368,0.522-0.566
					c0.111-0.194,0.167-0.365,0.167-0.512c0-0.167-0.048-0.294-0.152-0.386c-0.104-0.093-0.237-0.139-0.405-0.139
					c-0.152,0-0.271,0.038-0.355,0.108c-0.202,0.19-0.367,0.34-0.493,0.449c-0.128,0.113-0.264,0.218-0.415,0.313
					c-0.15,0.097-0.307,0.17-0.466,0.213c-0.16,0.048-0.336,0.069-0.531,0.069c-0.29,0-0.552-0.07-0.792-0.212
					c-0.24-0.145-0.431-0.357-0.578-0.636c-0.145-0.28-0.216-0.606-0.222-0.974h3.171
					C273.615,460.511,273.942,460.45,274.176,460.329z M270.02,459.59c0.055-0.546,0.213-0.957,0.472-1.236
					c0.26-0.28,0.592-0.418,0.995-0.418c0.426,0,0.764,0.136,1.024,0.412c0.261,0.273,0.407,0.689,0.446,1.242H270.02z"/>
				<path id="XMLID_919_" style="fill:#F6F7F8;" d="M280.916,460.329c0.232-0.122,0.352-0.385,0.352-0.791
					c0-0.44-0.116-0.87-0.341-1.296c-0.222-0.423-0.564-0.77-1.013-1.033c-0.46-0.27-1.003-0.403-1.634-0.403
					c-0.486,0-0.932,0.078-1.33,0.232c-0.4,0.157-0.736,0.381-1.009,0.675c-0.273,0.295-0.48,0.644-0.622,1.055
					c-0.145,0.41-0.218,0.854-0.218,1.333c0,1.017,0.291,1.823,0.868,2.418c0.58,0.593,1.387,0.889,2.43,0.889
					c0.453,0,0.859-0.061,1.208-0.179c0.348-0.117,0.641-0.269,0.872-0.446c0.234-0.182,0.408-0.368,0.518-0.566
					c0.116-0.194,0.171-0.365,0.171-0.512c0-0.167-0.047-0.294-0.15-0.386c-0.104-0.093-0.238-0.139-0.406-0.139
					c-0.151,0-0.27,0.038-0.355,0.108c-0.202,0.19-0.367,0.34-0.492,0.449c-0.127,0.113-0.264,0.218-0.415,0.313
					c-0.152,0.097-0.307,0.17-0.469,0.213c-0.157,0.048-0.335,0.069-0.527,0.069c-0.291,0-0.556-0.07-0.795-0.212
					c-0.238-0.145-0.431-0.357-0.575-0.636c-0.144-0.28-0.218-0.606-0.222-0.974h3.17
					C280.354,460.511,280.682,460.45,280.916,460.329z M276.762,459.59c0.053-0.546,0.211-0.957,0.47-1.236
					c0.261-0.28,0.592-0.418,0.995-0.418c0.425,0,0.764,0.136,1.026,0.412c0.257,0.273,0.407,0.689,0.446,1.242H276.762z"/>
				<path id="XMLID_390_" style="fill:#F6F7F8;" d="M286.927,457.215c-0.42-0.257-0.883-0.387-1.379-0.387
					c-0.415,0-0.79,0.09-1.114,0.268c-0.331,0.176-0.648,0.452-0.952,0.827v-0.194c0-0.297-0.071-0.52-0.218-0.678
					c-0.144-0.155-0.329-0.233-0.56-0.233c-0.233,0-0.419,0.078-0.554,0.228c-0.133,0.154-0.199,0.382-0.199,0.691v6.995
					c0,0.354,0.051,0.62,0.145,0.807c0.102,0.183,0.301,0.275,0.607,0.275c0.517,0,0.777-0.358,0.777-1.068v-2.434
					c0.286,0.358,0.586,0.635,0.9,0.817c0.314,0.187,0.704,0.279,1.166,0.279c0.385,0,0.741-0.076,1.079-0.228
					c0.334-0.152,0.622-0.372,0.868-0.653c0.245-0.283,0.44-0.632,0.58-1.05c0.14-0.418,0.21-0.878,0.21-1.376
					c0-0.677-0.122-1.261-0.366-1.758C287.676,457.849,287.346,457.473,286.927,457.215z M286.45,461.218
					c-0.137,0.313-0.32,0.546-0.552,0.704c-0.229,0.153-0.48,0.232-0.748,0.232c-0.454,0-0.828-0.179-1.133-0.536
					c-0.307-0.358-0.46-0.862-0.46-1.504c0-0.686,0.155-1.204,0.462-1.558c0.307-0.35,0.685-0.527,1.131-0.527
					c0.281,0,0.54,0.083,0.77,0.247c0.229,0.163,0.411,0.397,0.542,0.705c0.13,0.306,0.196,0.674,0.196,1.101
					C286.658,460.525,286.589,460.904,286.45,461.218z"/>
				<path id="XMLID_389_" style="fill:#F6F7F8;" d="M289.9,456.817c-0.238,0-0.428,0.079-0.58,0.244
					c-0.146,0.163-0.222,0.403-0.222,0.722v4.642c0,0.313,0.076,0.555,0.222,0.729c0.152,0.17,0.342,0.254,0.58,0.254
					s0.432-0.082,0.588-0.251c0.154-0.164,0.231-0.409,0.231-0.731v-4.689c0-0.286-0.077-0.512-0.231-0.675
					C290.332,456.897,290.139,456.817,289.9,456.817z"/>
				<path id="XMLID_388_" style="fill:#F6F7F8;" d="M289.917,454.477c-0.217,0-0.407,0.076-0.571,0.223
					c-0.166,0.149-0.247,0.339-0.247,0.568c0,0.253,0.08,0.447,0.242,0.586c0.158,0.138,0.35,0.209,0.576,0.209
					c0.22,0,0.408-0.071,0.566-0.21c0.157-0.14,0.236-0.335,0.236-0.585c0-0.257-0.082-0.454-0.244-0.591
					C290.314,454.544,290.13,454.477,289.917,454.477z"/>
				<path id="XMLID_387_" style="fill:#F6F7F8;" d="M297.258,461.847l-1.662-2.614l0.861-0.788c0.438-0.396,0.658-0.714,0.658-0.951
					c0-0.192-0.068-0.354-0.2-0.483c-0.138-0.128-0.306-0.192-0.509-0.192c-0.169,0-0.313,0.043-0.432,0.13
					c-0.121,0.086-0.29,0.251-0.517,0.486l-1.822,1.913v-3.933c0-0.329-0.074-0.581-0.221-0.751
					c-0.147-0.171-0.344-0.257-0.593-0.257c-0.256,0-0.457,0.093-0.596,0.283c-0.136,0.188-0.207,0.462-0.207,0.82v6.914
					c0,0.323,0.073,0.568,0.215,0.732c0.141,0.169,0.339,0.251,0.588,0.251c0.213,0,0.405-0.084,0.566-0.254
					c0.164-0.167,0.247-0.406,0.247-0.719v-1.29l0.88-0.83l1.428,2.352c0.182,0.278,0.329,0.472,0.435,0.58
					c0.107,0.109,0.261,0.16,0.459,0.16c0.226,0,0.412-0.073,0.553-0.222c0.142-0.15,0.214-0.351,0.214-0.609
					c0-0.089-0.029-0.189-0.082-0.288C297.47,462.187,297.379,462.042,297.258,461.847z"/>
				<path id="XMLID_386_" style="fill:#F6F7F8;" d="M299.45,461.62c-0.251,0-0.459,0.087-0.63,0.262
					c-0.171,0.173-0.257,0.381-0.257,0.622c0,0.287,0.091,0.51,0.269,0.665c0.179,0.159,0.389,0.238,0.633,0.238
					c0.237,0,0.444-0.079,0.624-0.241c0.175-0.157,0.264-0.38,0.264-0.662c0-0.243-0.089-0.454-0.264-0.626
					C299.909,461.707,299.698,461.62,299.45,461.62z"/>
				<path id="XMLID_385_" style="fill:#F6F7F8;" d="M306.835,460.693c-0.166,0-0.308,0.055-0.422,0.156
					c-0.113,0.103-0.219,0.245-0.318,0.427c-0.177,0.31-0.381,0.538-0.616,0.69c-0.23,0.149-0.509,0.225-0.834,0.225
					c-0.24,0-0.463-0.045-0.666-0.141c-0.201-0.094-0.372-0.229-0.516-0.409c-0.144-0.18-0.252-0.397-0.325-0.652
					c-0.075-0.256-0.114-0.537-0.114-0.842c0-0.646,0.147-1.161,0.44-1.533c0.293-0.375,0.682-0.562,1.158-0.562
					c0.333,0,0.606,0.075,0.82,0.227c0.219,0.147,0.425,0.376,0.623,0.674c0.108,0.158,0.209,0.27,0.299,0.339
					c0.09,0.069,0.201,0.104,0.338,0.104c0.202,0,0.377-0.068,0.524-0.203c0.143-0.135,0.214-0.3,0.214-0.491
					c0-0.192-0.062-0.397-0.192-0.617c-0.127-0.218-0.315-0.424-0.556-0.62c-0.245-0.192-0.54-0.353-0.891-0.474
					c-0.353-0.124-0.736-0.185-1.156-0.185c-0.674,0-1.26,0.139-1.747,0.419c-0.485,0.278-0.858,0.673-1.113,1.183
					c-0.259,0.511-0.387,1.098-0.387,1.765c0,0.982,0.281,1.765,0.841,2.35c0.563,0.582,1.345,0.876,2.349,0.876
					c0.469,0,0.894-0.065,1.269-0.191c0.377-0.126,0.688-0.295,0.935-0.503c0.248-0.207,0.434-0.425,0.553-0.655
					c0.122-0.23,0.183-0.446,0.183-0.647c0-0.169-0.066-0.331-0.198-0.481C307.198,460.771,307.033,460.693,306.835,460.693z"/>
				<path id="XMLID_382_" style="fill:#F6F7F8;" d="M313.646,457.73c-0.288-0.291-0.628-0.518-1.026-0.675
					c-0.4-0.16-0.847-0.238-1.336-0.238c-0.482,0-0.924,0.078-1.326,0.233c-0.398,0.158-0.737,0.38-1.02,0.669
					c-0.281,0.288-0.498,0.637-0.648,1.045c-0.146,0.408-0.225,0.857-0.225,1.349c0,0.485,0.076,0.93,0.22,1.332
					c0.151,0.401,0.369,0.75,0.657,1.048c0.284,0.292,0.626,0.521,1.016,0.676c0.393,0.159,0.835,0.239,1.326,0.239
					c0.492,0,0.937-0.08,1.336-0.234c0.394-0.157,0.735-0.382,1.02-0.675c0.286-0.291,0.502-0.642,0.656-1.05
					c0.145-0.408,0.222-0.855,0.222-1.336c0-0.488-0.075-0.932-0.221-1.339C314.148,458.373,313.933,458.026,313.646,457.73z
					 M312.455,461.646c-0.29,0.373-0.682,0.558-1.171,0.558c-0.324,0-0.604-0.086-0.846-0.253c-0.24-0.168-0.424-0.409-0.554-0.729
					c-0.129-0.316-0.193-0.685-0.193-1.108c0-0.428,0.066-0.803,0.197-1.124c0.13-0.321,0.314-0.563,0.556-0.727
					c0.242-0.163,0.522-0.245,0.84-0.245c0.489,0,0.881,0.182,1.171,0.555c0.289,0.367,0.436,0.881,0.436,1.542
					C312.891,460.764,312.744,461.276,312.455,461.646z"/>
				<path id="XMLID_381_" style="fill:#F6F7F8;" d="M323.569,457.091c-0.32-0.173-0.705-0.263-1.146-0.263
					c-0.38,0-0.726,0.081-1.038,0.241c-0.314,0.161-0.607,0.408-0.882,0.738c-0.191-0.326-0.431-0.572-0.725-0.735
					c-0.292-0.162-0.642-0.244-1.048-0.244c-0.395,0-0.748,0.079-1.07,0.241c-0.319,0.156-0.62,0.403-0.903,0.738v-0.153
					c0-0.261-0.073-0.466-0.221-0.616c-0.15-0.145-0.335-0.221-0.558-0.221c-0.226,0-0.412,0.078-0.556,0.238
					c-0.14,0.157-0.21,0.389-0.21,0.694v4.636c0,0.337,0.078,0.592,0.235,0.765c0.156,0.171,0.358,0.258,0.604,0.258
					c0.248,0,0.447-0.087,0.603-0.258c0.149-0.173,0.227-0.428,0.227-0.765v-2.189c0-0.683,0.086-1.206,0.253-1.566
					c0.169-0.369,0.517-0.55,1.048-0.55c0.264,0,0.459,0.071,0.582,0.22c0.121,0.142,0.197,0.33,0.226,0.552
					c0.027,0.226,0.04,0.544,0.04,0.952v2.581c0,0.342,0.078,0.594,0.232,0.768c0.148,0.17,0.35,0.255,0.595,0.255
					c0.254,0,0.454-0.085,0.61-0.255c0.156-0.174,0.23-0.426,0.23-0.768v-2.153c0-0.694,0.063-1.178,0.178-1.452
					c0.109-0.209,0.259-0.383,0.451-0.508c0.191-0.125,0.395-0.191,0.608-0.191c0.264,0,0.463,0.071,0.596,0.215
					c0.128,0.142,0.209,0.318,0.238,0.528c0.029,0.21,0.044,0.486,0.044,0.837v2.725c0,0.337,0.078,0.592,0.234,0.765
					c0.157,0.171,0.356,0.258,0.604,0.258c0.252,0,0.458-0.085,0.611-0.255c0.154-0.174,0.229-0.426,0.229-0.768v-3.163
					c0-0.629-0.068-1.091-0.206-1.386C324.128,457.515,323.889,457.265,323.569,457.091z"/>
			</g>
			<g id="XMLID_366_">
				<path id="XMLID_379_" style="fill:#F6F7F8;" d="M245.273,459.721c-0.001-0.003-0.001-0.006-0.001-0.011
					C245.272,459.715,245.272,459.718,245.273,459.721z"/>
				<path id="XMLID_378_" style="fill:#F6F7F8;" d="M245.355,460.238c0.001,0,0.001,0,0.001,0c-0.03-0.146-0.055-0.294-0.073-0.438
					C245.301,459.946,245.326,460.094,245.355,460.238z"/>
				<path id="XMLID_377_" style="fill:#F6F7F8;" d="M245.891,461.743c-0.003-0.007-0.006-0.014-0.01-0.021
					C245.885,461.729,245.888,461.736,245.891,461.743z"/>
				<path id="XMLID_376_" style="fill:#F6F7F8;" d="M245.84,461.643c-0.014-0.027-0.027-0.056-0.04-0.083
					C245.812,461.589,245.826,461.615,245.84,461.643z"/>
				<path id="XMLID_375_" style="fill:#F6F7F8;" d="M245.505,460.818c0.08,0.25,0.175,0.492,0.286,0.724
					c-0.113-0.236-0.206-0.478-0.284-0.724H245.505z"/>
				<path id="XMLID_374_" style="fill:#F6F7F8;" d="M250.736,452.959l-0.076-0.26c0.299-0.063,0.523-0.329,0.523-0.647
					c0-0.363-0.296-0.659-0.66-0.659c-0.365,0-0.66,0.296-0.66,0.659c0,0.317,0.225,0.584,0.522,0.647l0.084,0.289
					c-1.021,0.141-1.834,0.539-1.834,0.539l0.144,0.44c0.617-0.206,1.153-0.331,1.64-0.383c0.476-0.051,0.833-0.073,1.126-0.073
					c0.313,0,0.545,0.025,0.81,0.069l0.075-0.476C252.43,453.105,251.697,452.88,250.736,452.959z"/>
				<path id="XMLID_373_" style="fill:#F6F7F8;" d="M245.453,455.466c-0.017,0.023-0.497,0.465-0.876,1.279
					c-0.016-0.025-0.035-0.051-0.056-0.074c-0.114-0.124-0.272-0.188-0.474-0.184c-0.003,0-0.006,0-0.01,0
					c-0.124,0-0.21-0.042-0.266-0.093c0.056-0.07,0.089-0.16,0.089-0.258c0-0.23-0.188-0.419-0.419-0.419
					c-0.23,0-0.417,0.189-0.417,0.419c0,0.231,0.188,0.417,0.417,0.417c0.037,0,0.071-0.005,0.105-0.012
					c0.102,0.113,0.266,0.214,0.504,0.209c0.124-0.002,0.214,0.03,0.273,0.097c0.07,0.075,0.093,0.185,0.1,0.267
					c-0.001,0.002-0.001,0.004-0.002,0.004c-0.272,0.743-0.194,1.668-0.194,1.668l0.661,0.025c0.014-0.336,0.061-0.925,0.232-1.393
					c0.329-0.906,0.741-1.472,0.757-1.496l0.004-0.005c0.024-0.031,0.047-0.06,0.071-0.089l-0.196-0.142L245.453,455.466z"/>
				<path id="XMLID_372_" style="fill:#F6F7F8;" d="M257.294,454.065c-0.23,0-0.419,0.186-0.419,0.417
					c0,0.037,0.006,0.071,0.016,0.104c-0.115,0.104-0.215,0.267-0.211,0.506c0.002,0.123-0.03,0.213-0.097,0.273
					c-0.053,0.047-0.119,0.071-0.185,0.087c-0.492-0.689-1.098-1.109-1.098-1.109l-0.474,0.509c0.358,0.326,0.725,0.734,1.08,1.244
					c0.246,0.352,0.499,0.806,0.71,1.258l0.64-0.304c0,0-0.292-0.722-0.703-1.369c0.071-0.025,0.143-0.064,0.206-0.12
					c0.126-0.113,0.188-0.273,0.184-0.474c-0.001-0.13,0.041-0.218,0.093-0.275c0.071,0.054,0.16,0.089,0.258,0.089
					c0.232,0,0.418-0.188,0.418-0.419C257.712,454.251,257.525,454.065,257.294,454.065z"/>
				<path id="XMLID_371_" style="fill:#F6F7F8;" d="M255.633,459.815c-0.88,0.429-2.33,0.996-4.236,1.262
					c-0.749,0.104-1.475,0.143-2.143,0.143c-0.869,0-1.638-0.064-2.227-0.14c-0.672-0.084-1.198-0.189-1.52-0.261
					c0.078,0.245,0.171,0.487,0.284,0.724c0.002,0.006,0.005,0.013,0.008,0.018c0.013,0.027,0.027,0.056,0.04,0.083
					c0.014,0.027,0.027,0.055,0.041,0.079c0.004,0.008,0.007,0.015,0.01,0.021c0.19,0.357,0.417,0.684,0.676,0.968
					c0.899,0.984,1.816,1.139,1.825,1.141l0.015,0.002l0.013,0.005c0.009,0.003,0.821,0.265,2.057,0.265
					c1.215,0,2.409-0.244,3.545-0.729c0.842-0.431,1.639-1.085,2.033-1.668c0.306-0.452,0.526-0.934,0.656-1.434
					c0.069-0.266,0.124-0.692,0.092-1.141C256.555,459.319,256.163,459.557,255.633,459.815z"/>
				<path id="XMLID_367_" style="fill:#F6F7F8;" d="M252.322,453.933c-0.265-0.044-0.477-0.068-0.777-0.068
					c-0.279,0-0.626,0.023-1.088,0.07c-0.465,0.049-0.982,0.171-1.583,0.373c-0.842,0.282-1.604,0.725-2.204,1.28l-0.02,0.019
					c-0.089,0.081-0.275,0.254-0.488,0.525c-0.025,0.037-0.408,0.578-0.709,1.408c-0.226,0.621-0.216,1.526-0.216,1.537v0.001
					c0,0.212,0.013,0.423,0.036,0.632c0,0.005,0,0.008,0.001,0.011c0.003,0.027,0.007,0.053,0.01,0.08
					c0.019,0.144,0.043,0.291,0.074,0.438c0.438,0.112,3.048,0.721,5.967,0.314c1.829-0.254,3.218-0.795,4.061-1.204
					c0.701-0.34,1.151-0.647,1.325-0.773c-0.173-0.643-0.651-1.65-1.089-2.278C254.367,454.506,253.016,454.047,252.322,453.933z
					 M248.679,459.191c-0.972,0-1.759-0.787-1.759-1.76c0-0.972,0.788-1.76,1.759-1.76c0.973,0,1.761,0.788,1.761,1.76
					C250.439,458.404,249.651,459.191,248.679,459.191z M253.828,457.895c-0.601,0-1.088-0.489-1.088-1.09
					c0-0.602,0.487-1.09,1.088-1.09s1.09,0.487,1.09,1.09C254.918,457.405,254.429,457.895,253.828,457.895z"/>
			</g>
		</g>
	</g>
</g>
</svg>
