<svg xmlns="http://www.w3.org/2000/svg" version="1.1" xmlns:xlink="http://www.w3.org/1999/xlink" xmlns:svgjs="http://svgjs.dev/svgjs" width="128" height="128" viewBox="0 0 128 128"><g transform="matrix(0.8046875,0,0,0.8046875,12.333870967741937,29.863705295538182)"><svg viewBox="0 0 155 103" data-background-color="#e6e9e0" preserveAspectRatio="xMidYMid meet" height="85" width="128" xmlns="http://www.w3.org/2000/svg" xmlns:xlink="http://www.w3.org/1999/xlink"><g id="tight-bounds" transform="matrix(1,0,0,1,0.25,-0.09475620975160837)"><svg viewBox="0 0 154.5 103.18951241950322" height="103.18951241950322" width="154.5"><g><svg viewBox="0 0 154.5 103.18951241950322" height="103.18951241950322" width="154.5"><g><svg viewBox="0 0 154.5 103.18951241950322" height="103.18951241950322" width="154.5"><g id="textblocktransform"><svg viewBox="0 0 154.5 103.18951241950322" height="103.18951241950322" width="154.5" id="textblock"><g><svg viewBox="0 0 154.5 103.18951241950322" height="103.18951241950322" width="154.5"><g transform="matrix(1,0,0,1,0,0)"><svg width="154.5" viewBox="0.05 -35.15 54.35 36.3" height="103.18951241950322" data-palette-color="#776e9a"><path d="M10.8 1.15Q8.35 1.15 5.98 0.05 3.6-1.05 1.98-2.98 0.35-4.9 0.05-7.3L0.05-7.3 2.6-8.15Q3.15-5.1 5.55-3.35 7.95-1.6 10.9-1.6L10.9-1.6Q13.35-1.6 15.5-2.78 17.65-3.95 18.93-6 20.2-8.05 20.2-10.6L20.2-10.6Q20.2-12.45 19.13-13.78 18.05-15.1 15.55-16.45L15.55-16.45Q11.9-18.4 10-19.6 8.1-20.8 6.88-22.4 5.65-24 5.65-26.15L5.65-26.15Q5.65-28.8 7.1-30.85 8.55-32.9 10.88-34.02 13.2-35.15 15.8-35.15L15.8-35.15Q18.7-35.15 20.7-33.65 22.7-32.15 22.7-29.9L22.7-29.9Q22.7-29.65 22.6-29.05L22.6-29.05 19.9-29.4Q20.1-30.85 18.75-31.63 17.4-32.4 15.6-32.4L15.6-32.4Q13.8-32.4 12.18-31.6 10.55-30.8 9.55-29.45 8.55-28.1 8.55-26.5L8.55-26.5Q8.55-24.35 10.25-22.9 11.95-21.45 15.05-19.8L15.05-19.8Q16.05-19.3 17.05-18.7L17.05-18.7Q20.25-16.9 21.68-14.98 23.1-13.05 23.1-10.55L23.1-10.55Q23.1-10.15 23-9.15L23-9.15Q22.6-6.15 20.78-3.8 18.95-1.45 16.3-0.15 13.65 1.15 10.8 1.15L10.8 1.15ZM33.4-34.2L36.35-34.2 34.3-18.55 36.3-18.65Q38.25-18.75 39.47-19.28 40.7-19.8 42-21.25L42-21.25Q42.95-22.25 44.07-23.75 45.2-25.25 46.05-26.6L46.05-26.6Q47.45-28.6 50.85-34.25L50.85-34.25 54.4-34.15Q53.85-33.3 50.85-28.5L50.85-28.5 48.3-24.45Q47.45-23.35 45.2-20.25L45.2-20.25Q43.4-18.2 42.15-17.3L42.15-17.3 49.85-3.15Q50.3-2.45 51.05-2.45L51.05-2.45Q51.75-2.45 52.1-2.8L52.1-2.8 53.25-0.35Q52.2 0.4 51 0.4L51 0.4Q48.75 0.4 47.5-1.65L47.5-1.65 39.4-16.2Q38.1-15.8 37.02-15.73 35.95-15.65 35.12-15.65 34.3-15.65 34.05-15.65L34.05-15.65 31.95-0.05 28.9-0.05 33.4-34.2Z" opacity="1" transform="matrix(1,0,0,1,0,0)" fill="#776e9a" class="wordmark-text-0" data-fill-palette-color="primary" id="text-0"></path></svg></g></svg></g></svg></g></svg></g><g></g></svg></g><defs></defs></svg><rect width="154.5" height="103.18951241950322" fill="none" stroke="none" visibility="hidden"></rect></g></svg></g></svg>